<svg xmlns="http://www.w3.org/2000/svg" viewBox="0 0 64 70" x="0px" y="0px"><title>bubble</title><g data-name="Layer 2"><g data-name="Layer 1"><rect x="16" y="52" width="4" height="4"/><rect x="12" y="52" width="4" height="4"/><rect x="20" y="48" width="4" height="4"/><rect x="16" y="48" width="4" height="4"/><rect x="12" y="48" width="4" height="4"/><rect x="24" y="44" width="4" height="4"/><rect x="20" y="44" width="4" height="4"/><rect x="12" y="44" width="4" height="4"/><rect x="48" y="40" width="4" height="4"/><rect x="44" y="40" width="4" height="4"/><rect x="40" y="40" width="4" height="4"/><rect x="36" y="40" width="4" height="4"/><rect x="32" y="40" width="4" height="4"/><rect x="28" y="40" width="4" height="4"/><rect x="24" y="40" width="4" height="4"/><rect x="12" y="40" width="4" height="4"/><rect x="8" y="40" width="4" height="4"/><rect x="52" y="36" width="4" height="4"/><rect x="48" y="36" width="4" height="4"/><rect x="44" y="36" width="4" height="4"/><rect x="40" y="36" width="4" height="4"/><rect x="36" y="36" width="4" height="4"/><rect x="32" y="36" width="4" height="4"/><rect x="28" y="36" width="4" height="4"/><rect x="12" y="36" width="4" height="4"/><rect x="8" y="36" width="4" height="4"/><rect x="4" y="36" width="4" height="4"/><rect x="56" y="32" width="4" height="4"/><rect x="4" y="32" width="4" height="4"/><rect x="60" y="28" width="4" height="4"/><rect y="28" width="4" height="4"/><rect x="60" y="24" width="4" height="4"/><rect y="24" width="4" height="4"/><rect x="60" y="20" width="4" height="4"/><rect x="32" y="20" width="4" height="4"/><rect x="28" y="20" width="4" height="4"/><rect x="24" y="20" width="4" height="4"/><rect x="20" y="20" width="4" height="4"/><rect x="16" y="20" width="4" height="4"/><rect x="12" y="20" width="4" height="4"/><rect y="20" width="4" height="4"/><rect x="60" y="16" width="4" height="4"/><rect y="16" width="4" height="4"/><rect x="60" y="12" width="4" height="4"/><rect x="40" y="12" width="4" height="4"/><rect x="36" y="12" width="4" height="4"/><rect x="32" y="12" width="4" height="4"/><rect x="28" y="12" width="4" height="4"/><rect x="24" y="12" width="4" height="4"/><rect x="20" y="12" width="4" height="4"/><rect x="16" y="12" width="4" height="4"/><rect x="12" y="12" width="4" height="4"/><rect y="12" width="4" height="4"/><rect x="60" y="8" width="4" height="4"/><rect y="8" width="4" height="4"/><rect x="56" y="4" width="4" height="4"/><rect x="4" y="4" width="4" height="4"/><rect x="52" width="4" height="4"/><rect x="48" width="4" height="4"/><rect x="44" width="4" height="4"/><rect x="40" width="4" height="4"/><rect x="36" width="4" height="4"/><rect x="32" width="4" height="4"/><rect x="28" width="4" height="4"/><rect x="24" width="4" height="4"/><rect x="20" width="4" height="4"/><rect x="16" width="4" height="4"/><rect x="12" width="4" height="4"/><rect x="8" width="4" height="4"/></g></g><text x="0" y="71" fill="#000000" font-size="5px" font-weight="bold" font-family="'Helvetica Neue', Helvetica, Arial-Unicode, Arial, Sans-serif">Created by George Serov</text><text x="0" y="76" fill="#000000" font-size="5px" font-weight="bold" font-family="'Helvetica Neue', Helvetica, Arial-Unicode, Arial, Sans-serif">from the Noun Project</text></svg>